  0
SECTION
  2
HEADER
  9
$ACADVER
  1
AC1024
  9
$ACADMAINTVER
 70
6
  9
$DWGCODEPAGE
  3
ANSI_1252
  9
$LASTSAVEDBY
  1
ezdxf
  9
$INSBASE
 10
0.0
 20
0.0
 30
0.0
  9
$EXTMIN
 10
1e+20
 20
1e+20
 30
1e+20
  9
$EXTMAX
 10
-1e+20
 20
-1e+20
 30
-1e+20
  9
$LIMMIN
 10
0.0
 20
0.0
  9
$LIMMAX
 10
420.0
 20
297.0
  9
$ORTHOMODE
 70
0
  9
$REGENMODE
 70
1
  9
$FILLMODE
 70
1
  9
$QTEXTMODE
 70
0
  9
$MIRRTEXT
 70
1
  9
$LTSCALE
 40
1.0
  9
$ATTMODE
 70
1
  9
$TEXTSIZE
 40
2.5
  9
$TRACEWID
 40
1.0
  9
$TEXTSTYLE
  7
Standard
  9
$CLAYER
  8
0
  9
$CELTYPE
  6
ByLayer
  9
$CECOLOR
 62
256
  9
$CELTSCALE
 40
1.0
  9
$DISPSILH
 70
0
  9
$DIMSCALE
 40
1.0
  9
$DIMASZ
 40
2.5
  9
$DIMEXO
 40
0.625
  9
$DIMDLI
 40
3.75
  9
$DIMRND
 40
0.0
  9
$DIMDLE
 40
0.0
  9
$DIMEXE
 40
1.25
  9
$DIMTP
 40
0.0
  9
$DIMTM
 40
0.0
  9
$DIMTXT
 40
2.5
  9
$DIMCEN
 40
2.5
  9
$DIMTSZ
 40
0.0
  9
$DIMTOL
 70
0
  9
$DIMLIM
 70
0
  9
$DIMTIH
 70
0
  9
$DIMTOH
 70
0
  9
$DIMSE1
 70
0
  9
$DIMSE2
 70
0
  9
$DIMTAD
 70
1
  9
$DIMZIN
 70
8
  9
$DIMBLK
  1

  9
$DIMASO
 70
1
  9
$DIMSHO
 70
1
  9
$DIMPOST
  1

  9
$DIMAPOST
  1

  9
$DIMALT
 70
0
  9
$DIMALTD
 70
3
  9
$DIMALTF
 40
0.03937007874
  9
$DIMLFAC
 40
1.0
  9
$DIMTOFL
 70
1
  9
$DIMTVP
 40
0.0
  9
$DIMTIX
 70
0
  9
$DIMSOXD
 70
0
  9
$DIMSAH
 70
0
  9
$DIMBLK1
  1

  9
$DIMBLK2
  1

  9
$DIMSTYLE
  2
ISO-25
  9
$DIMCLRD
 70
0
  9
$DIMCLRE
 70
0
  9
$DIMCLRT
 70
0
  9
$DIMTFAC
 40
1.0
  9
$DIMGAP
 40
0.625
  9
$DIMJUST
 70
0
  9
$DIMSD1
 70
0
  9
$DIMSD2
 70
0
  9
$DIMTOLJ
 70
0
  9
$DIMTZIN
 70
8
  9
$DIMALTZ
 70
0
  9
$DIMALTTZ
 70
0
  9
$DIMUPT
 70
0
  9
$DIMDEC
 70
2
  9
$DIMTDEC
 70
2
  9
$DIMALTU
 70
2
  9
$DIMALTTD
 70
3
  9
$DIMTXSTY
  7
Standard
  9
$DIMAUNIT
 70
0
  9
$DIMADEC
 70
0
  9
$DIMALTRND
 40
0.0
  9
$DIMAZIN
 70
0
  9
$DIMDSEP
 70
44
  9
$DIMATFIT
 70
3
  9
$DIMFRAC
 70
0
  9
$DIMLDRBLK
  1

  9
$DIMLUNIT
 70
2
  9
$DIMLWD
 70
-2
  9
$DIMLWE
 70
-2
  9
$DIMTMOVE
 70
0
  9
$DIMFXL
 40
1.0
  9
$DIMFXLON
 70
0
  9
$DIMJOGANG
 40
0.785398163397
  9
$DIMTFILL
 70
0
  9
$DIMTFILLCLR
 70
0
  9
$DIMARCSYM
 70
0
  9
$DIMLTYPE
  6

  9
$DIMLTEX1
  6

  9
$DIMLTEX2
  6

  9
$DIMTXTDIRECTION
 70
0
  9
$LUNITS
 70
2
  9
$LUPREC
 70
4
  9
$SKETCHINC
 40
1.0
  9
$FILLETRAD
 40
10.0
  9
$AUNITS
 70
0
  9
$AUPREC
 70
2
  9
$MENU
  1
.
  9
$ELEVATION
 40
0.0
  9
$PELEVATION
 40
0.0
  9
$THICKNESS
 40
0.0
  9
$LIMCHECK
 70
0
  9
$CHAMFERA
 40
0.0
  9
$CHAMFERB
 40
0.0
  9
$CHAMFERC
 40
0.0
  9
$CHAMFERD
 40
0.0
  9
$SKPOLY
 70
0
  9
$TDCREATE
 40
2460840.465335648
  9
$TDUCREATE
 40
2458532.153996898
  9
$TDUPDATE
 40
2460840.465335648
  9
$TDUUPDATE
 40
2458532.1544311
  9
$TDINDWG
 40
0.0
  9
$TDUSRTIMER
 40
0.0
  9
$USRTIMER
 70
1
  9
$ANGBASE
 50
0.0
  9
$ANGDIR
 70
0
  9
$PDMODE
 70
0
  9
$PDSIZE
 40
0.0
  9
$PLINEWID
 40
0.0
  9
$SPLFRAME
 70
0
  9
$SPLINETYPE
 70
6
  9
$SPLINESEGS
 70
8
  9
$HANDSEED
  5
A8
  9
$SURFTAB1
 70
6
  9
$SURFTAB2
 70
6
  9
$SURFTYPE
 70
6
  9
$SURFU
 70
6
  9
$SURFV
 70
6
  9
$UCSBASE
  2

  9
$UCSNAME
  2

  9
$UCSORG
 10
0.0
 20
0.0
 30
0.0
  9
$UCSXDIR
 10
1.0
 20
0.0
 30
0.0
  9
$UCSYDIR
 10
0.0
 20
1.0
 30
0.0
  9
$UCSORTHOREF
  2

  9
$UCSORTHOVIEW
 70
0
  9
$UCSORGTOP
 10
0.0
 20
0.0
 30
0.0
  9
$UCSORGBOTTOM
 10
0.0
 20
0.0
 30
0.0
  9
$UCSORGLEFT
 10
0.0
 20
0.0
 30
0.0
  9
$UCSORGRIGHT
 10
0.0
 20
0.0
 30
0.0
  9
$UCSORGFRONT
 10
0.0
 20
0.0
 30
0.0
  9
$UCSORGBACK
 10
0.0
 20
0.0
 30
0.0
  9
$PUCSBASE
  2

  9
$PUCSNAME
  2

  9
$PUCSORG
 10
0.0
 20
0.0
 30
0.0
  9
$PUCSXDIR
 10
1.0
 20
0.0
 30
0.0
  9
$PUCSYDIR
 10
0.0
 20
1.0
 30
0.0
  9
$PUCSORTHOREF
  2

  9
$PUCSORTHOVIEW
 70
0
  9
$PUCSORGTOP
 10
0.0
 20
0.0
 30
0.0
  9
$PUCSORGBOTTOM
 10
0.0
 20
0.0
 30
0.0
  9
$PUCSORGLEFT
 10
0.0
 20
0.0
 30
0.0
  9
$PUCSORGRIGHT
 10
0.0
 20
0.0
 30
0.0
  9
$PUCSORGFRONT
 10
0.0
 20
0.0
 30
0.0
  9
$PUCSORGBACK
 10
0.0
 20
0.0
 30
0.0
  9
$USERI1
 70
0
  9
$USERI2
 70
0
  9
$USERI3
 70
0
  9
$USERI4
 70
0
  9
$USERI5
 70
0
  9
$USERR1
 40
0.0
  9
$USERR2
 40
0.0
  9
$USERR3
 40
0.0
  9
$USERR4
 40
0.0
  9
$USERR5
 40
0.0
  9
$WORLDVIEW
 70
1
  9
$SHADEDGE
 70
3
  9
$SHADEDIF
 70
70
  9
$TILEMODE
 70
1
  9
$MAXACTVP
 70
64
  9
$PINSBASE
 10
0.0
 20
0.0
 30
0.0
  9
$PLIMCHECK
 70
0
  9
$PEXTMIN
 10
1e+20
 20
1e+20
 30
1e+20
  9
$PEXTMAX
 10
-1e+20
 20
-1e+20
 30
-1e+20
  9
$PLIMMIN
 10
0.0
 20
0.0
  9
$PLIMMAX
 10
420.0
 20
297.0
  9
$UNITMODE
 70
0
  9
$VISRETAIN
 70
1
  9
$PLINEGEN
 70
0
  9
$PSLTSCALE
 70
1
  9
$TREEDEPTH
 70
3020
  9
$CMLSTYLE
  2
Standard
  9
$CMLJUST
 70
0
  9
$CMLSCALE
 40
20.0
  9
$PROXYGRAPHICS
 70
1
  9
$MEASUREMENT
 70
1
  9
$CELWEIGHT
370
-1
  9
$ENDCAPS
280
0
  9
$JOINSTYLE
280
0
  9
$LWDISPLAY
290
0
  9
$INSUNITS
 70
6
  9
$HYPERLINKBASE
  1

  9
$STYLESHEET
  1

  9
$XEDIT
290
1
  9
$CEPSNTYPE
380
0
  9
$PSTYLEMODE
290
1
  9
$FINGERPRINTGUID
  2
{479D28D0-4CCB-4016-8A1C-599ABF6B90CF}
  9
$VERSIONGUID
  2
{736AD058-A2F7-4A4A-BF1D-CEA1035A10E9}
  9
$EXTNAMES
290
1
  9
$PSVPSCALE
 40
0.0
  9
$OLESTARTUP
290
0
  9
$SORTENTS
280
127
  9
$INDEXCTL
280
0
  9
$HIDETEXT
280
1
  9
$XCLIPFRAME
280
1
  9
$HALOGAP
280
0
  9
$OBSCOLOR
 70
257
  9
$OBSLTYPE
280
0
  9
$INTERSECTIONDISPLAY
280
0
  9
$INTERSECTIONCOLOR
 70
257
  9
$DIMASSOC
280
2
  9
$PROJECTNAME
  1

  9
$CAMERADISPLAY
290
0
  9
$LENSLENGTH
 40
50.0
  9
$CAMERAHEIGHT
 40
0.0
  9
$STEPSPERSEC
 40
24.0
  9
$STEPSIZE
 40
100.0
  9
$3DDWFPREC
 40
2.0
  9
$PSOLWIDTH
 40
0.005
  9
$PSOLHEIGHT
 40
0.08
  9
$LOFTANG1
 40
1.570796326795
  9
$LOFTANG2
 40
1.570796326795
  9
$LOFTMAG1
 40
0.0
  9
$LOFTMAG2
 40
0.0
  9
$LOFTPARAM
 70
7
  9
$LOFTNORMALS
280
1
  9
$LATITUDE
 40
37.795
  9
$LONGITUDE
 40
-122.394
  9
$NORTHDIRECTION
 40
0.0
  9
$TIMEZONE
 70
-8000
  9
$LIGHTGLYPHDISPLAY
280
1
  9
$TILEMODELIGHTSYNCH
280
1
  9
$CMATERIAL
347
20
  9
$SOLIDHIST
280
0
  9
$SHOWHIST
280
1
  9
$DWFFRAME
280
2
  9
$DGNFRAME
280
2
  9
$REALWORLDSCALE
290
1
  9
$INTERFERECOLOR
 62
256
  9
$CSHADOW
280
0
  9
$SHADOWPLANELOCATION
 40
0.0
  0
ENDSEC
  0
SECTION
  2
CLASSES
  0
CLASS
  1
ACDBDICTIONARYWDFLT
  2
AcDbDictionaryWithDefault
  3
ObjectDBX Classes
 90
0
 91
0
280
0
281
0
  0
CLASS
  1
SUN
  2
AcDbSun
  3
SCENEOE
 90
1153
 91
0
280
0
281
0
  0
CLASS
  1
VISUALSTYLE
  2
AcDbVisualStyle
  3
ObjectDBX Classes
 90
4095
 91
0
280
0
281
0
  0
CLASS
  1
MATERIAL
  2
AcDbMaterial
  3
ObjectDBX Classes
 90
1153
 91
0
280
0
281
0
  0
CLASS
  1
SCALE
  2
AcDbScale
  3
ObjectDBX Classes
 90
1153
 91
0
280
0
281
0
  0
CLASS
  1
TABLESTYLE
  2
AcDbTableStyle
  3
ObjectDBX Classes
 90
4095
 91
0
280
0
281
0
  0
CLASS
  1
MLEADERSTYLE
  2
AcDbMLeaderStyle
  3
ACDB_MLEADERSTYLE_CLASS
 90
4095
 91
0
280
0
281
0
  0
CLASS
  1
DICTIONARYVAR
  2
AcDbDictionaryVar
  3
ObjectDBX Classes
 90
0
 91
0
280
0
281
0
  0
CLASS
  1
CELLSTYLEMAP
  2
AcDbCellStyleMap
  3
ObjectDBX Classes
 90
1152
 91
0
280
0
281
0
  0
CLASS
  1
MENTALRAYRENDERSETTINGS
  2
AcDbMentalRayRenderSettings
  3
SCENEOE
 90
1024
 91
0
280
0
281
0
  0
CLASS
  1
ACDBDETAILVIEWSTYLE
  2
AcDbDetailViewStyle
  3
ObjectDBX Classes
 90
1025
 91
0
280
0
281
0
  0
CLASS
  1
ACDBSECTIONVIEWSTYLE
  2
AcDbSectionViewStyle
  3
ObjectDBX Classes
 90
1025
 91
0
280
0
281
0
  0
CLASS
  1
RASTERVARIABLES
  2
AcDbRasterVariables
  3
ISM
 90
0
 91
0
280
0
281
0
  0
CLASS
  1
ACDBPLACEHOLDER
  2
AcDbPlaceHolder
  3
ObjectDBX Classes
 90
0
 91
0
280
0
281
0
  0
CLASS
  1
LAYOUT
  2
AcDbLayout
  3
ObjectDBX Classes
 90
0
 91
0
280
0
281
0
  0
ENDSEC
  0
SECTION
  2
TABLES
  0
TABLE
  2
VPORT
  5
8
330
0
100
AcDbSymbolTable
 70
1
  0
VPORT
  5
23
330
8
100
AcDbSymbolTableRecord
100
AcDbViewportTableRecord
  2
*Active
 70
0
 10
0.0
 20
0.0
 11
1.0
 21
1.0
 12
0.0
 22
0.0
 13
0.0
 23
0.0
 14
0.5
 24
0.5
 15
0.5
 25
0.5
 16
0.0
 26
0.0
 36
1.0
 17
0.0
 27
0.0
 37
0.0
 40
1000.0
 41
1.34
 42
50.0
 43
0.0
 44
0.0
 50
0.0
 51
0.0
 71
0
 72
1000
 73
1
 74
3
 75
0
 76
0
 77
0
 78
0
281
0
 65
0
146
0.0
  0
ENDTAB
  0
TABLE
  2
LTYPE
  5
2
330
0
100
AcDbSymbolTable
 70
3
  0
LTYPE
  5
24
330
2
100
AcDbSymbolTableRecord
100
AcDbLinetypeTableRecord
  2
ByBlock
 70
0
  3

 72
65
 73
0
 40
0.0
  0
LTYPE
  5
25
330
2
100
AcDbSymbolTableRecord
100
AcDbLinetypeTableRecord
  2
ByLayer
 70
0
  3

 72
65
 73
0
 40
0.0
  0
LTYPE
  5
26
330
2
100
AcDbSymbolTableRecord
100
AcDbLinetypeTableRecord
  2
Continuous
 70
0
  3

 72
65
 73
0
 40
0.0
  0
ENDTAB
  0
TABLE
  2
LAYER
  5
1
330
0
100
AcDbSymbolTable
 70
3
  0
LAYER
  5
27
330
1
100
AcDbSymbolTableRecord
100
AcDbLayerTableRecord
  2
0
 70
0
 62
7
  6
Continuous
370
-3
390
13
347
21
  0
LAYER
  5
28
330
1
100
AcDbSymbolTableRecord
100
AcDbLayerTableRecord
  2
Defpoints
 70
0
 62
7
  6
Continuous
290
0
370
-3
390
13
347
21
  0
LAYER
  5
2F
330
1
100
AcDbSymbolTableRecord
100
AcDbLayerTableRecord
  2
POLYLINES
 70
0
 62
7
  6
Continuous
370
-3
390
13
347
21
  0
ENDTAB
  0
TABLE
  2
STYLE
  5
5
330
0
100
AcDbSymbolTable
 70
1
  0
STYLE
  5
29
330
5
100
AcDbSymbolTableRecord
100
AcDbTextStyleTableRecord
  2
Standard
 70
0
 40
0.0
 41
1.0
 50
0.0
 71
0
 42
2.5
  3
txt
  4

  0
ENDTAB
  0
TABLE
  2
VIEW
  5
7
330
0
100
AcDbSymbolTable
 70
0
  0
ENDTAB
  0
TABLE
  2
UCS
  5
6
330
0
100
AcDbSymbolTable
 70
0
  0
ENDTAB
  0
TABLE
  2
APPID
  5
3
330
0
100
AcDbSymbolTable
 70
3
  0
APPID
  5
2A
330
3
100
AcDbSymbolTableRecord
100
AcDbRegAppTableRecord
  2
ACAD
 70
0
  0
APPID
  5
A5
330
3
100
AcDbSymbolTableRecord
100
AcDbRegAppTableRecord
  2
HATCHBACKGROUNDCOLOR
 70
0
  0
APPID
  5
A6
330
3
100
AcDbSymbolTableRecord
100
AcDbRegAppTableRecord
  2
EZDXF
 70
0
  0
ENDTAB
  0
TABLE
  2
DIMSTYLE
  5
4
330
0
100
AcDbSymbolTable
 70
1
100
AcDbDimStyleTable
  0
DIMSTYLE
105
2B
330
4
100
AcDbSymbolTableRecord
100
AcDbDimStyleTableRecord
  2
Standard
 70
0
 40
1.0
 41
2.5
 42
0.625
 43
3.75
 44
1.25
 45
0.0
 46
0.0
 47
0.0
 48
0.0
 49
2.5
140
2.5
141
2.5
142
0.0
143
0.03937007874
144
1.0
145
0.0
146
1.0
147
0.625
148
0.0
 69
0
 70
0
 71
0
 72
0
 73
0
 74
0
 75
0
 76
0
 77
1
 78
8
 79
3
170
0
171
3
172
1
173
0
174
0
175
0
176
0
177
0
178
0
179
2
271
2
272
2
273
2
274
3
275
0
276
0
277
2
278
44
279
0
280
0
281
0
282
0
283
0
284
8
285
0
286
0
288
0
289
3
290
0
371
-2
372
-2
  0
ENDTAB
  0
TABLE
  2
BLOCK_RECORD
  5
9
330
0
100
AcDbSymbolTable
 70
2
  0
BLOCK_RECORD
  5
17
330
9
100
AcDbSymbolTableRecord
100
AcDbBlockTableRecord
  2
*Model_Space
340
1A
 70
0
280
1
281
0
  0
BLOCK_RECORD
  5
1B
330
9
100
AcDbSymbolTableRecord
100
AcDbBlockTableRecord
  2
*Paper_Space
340
1E
 70
0
280
1
281
0
  0
ENDTAB
  0
ENDSEC
  0
SECTION
  2
BLOCKS
  0
BLOCK
  5
18
330
17
100
AcDbEntity
  8
0
100
AcDbBlockBegin
  2
*Model_Space
 70
0
 10
0.0
 20
0.0
 30
0.0
  3
*Model_Space
  1

  0
ENDBLK
  5
19
330
17
100
AcDbEntity
  8
0
100
AcDbBlockEnd
  0
BLOCK
  5
1C
330
1B
100
AcDbEntity
  8
0
100
AcDbBlockBegin
  2
*Paper_Space
 70
0
 10
0.0
 20
0.0
 30
0.0
  3
*Paper_Space
  1

  0
ENDBLK
  5
1D
330
1B
100
AcDbEntity
  8
0
100
AcDbBlockEnd
  0
ENDSEC
  0
SECTION
  2
ENTITIES
  0
POLYLINE
  5
30
330
17
100
AcDbEntity
  8
POLYLINES
100
AcDb3dPolyline
 66
1
 10
0.0
 20
0.0
 30
0.0
 70
8
  0
VERTEX
  5
32
330
17
100
AcDbEntity
  8
POLYLINES
100
AcDbVertex
100
AcDb3dPolylineVertex
 10
702393.1578880581
 20
9316829.061460555
 30
90.0
 70
32
  0
VERTEX
  5
33
330
17
100
AcDbEntity
  8
POLYLINES
100
AcDbVertex
100
AcDb3dPolylineVertex
 10
702695.493709147
 20
9316807.373338323
 30
90.0
 70
32
  0
VERTEX
  5
34
330
17
100
AcDbEntity
  8
POLYLINES
100
AcDbVertex
100
AcDb3dPolylineVertex
 10
702685.6122565541
 20
9316537.00962363
 30
90.0
 70
32
  0
VERTEX
  5
35
330
17
100
AcDbEntity
  8
POLYLINES
100
AcDbVertex
100
AcDb3dPolylineVertex
 10
702637.5256977606
 20
9316427.085193848
 30
90.0
 70
32
  0
VERTEX
  5
36
330
17
100
AcDbEntity
  8
POLYLINES
100
AcDbVertex
100
AcDb3dPolylineVertex
 10
702574.3676656361
 20
9316407.6983892
 30
90.0
 70
32
  0
VERTEX
  5
37
330
17
100
AcDbEntity
  8
POLYLINES
100
AcDbVertex
100
AcDb3dPolylineVertex
 10
702448.2383033945
 20
9316388.963118993
 30
90.0
 70
32
  0
VERTEX
  5
38
330
17
100
AcDbEntity
  8
POLYLINES
100
AcDbVertex
100
AcDb3dPolylineVertex
 10
702391.6991091518
 20
9316401.35997445
 30
90.0
 70
32
  0
VERTEX
  5
39
330
17
100
AcDbEntity
  8
POLYLINES
100
AcDbVertex
100
AcDb3dPolylineVertex
 10
702340.688705133
 20
9316434.142802179
 30
90.0
 70
32
  0
VERTEX
  5
3A
330
17
100
AcDbEntity
  8
POLYLINES
100
AcDbVertex
100
AcDb3dPolylineVertex
 10
702280.3361319529
 20
9316482.425649242
 30
90.0
 70
32
  0
VERTEX
  5
3B
330
17
100
AcDbEntity
  8
POLYLINES
100
AcDbVertex
100
AcDb3dPolylineVertex
 10
702227.2393238962
 20
9316536.36813185
 30
90.0
 70
32
  0
VERTEX
  5
3C
330
17
100
AcDbEntity
  8
POLYLINES
100
AcDbVertex
100
AcDb3dPolylineVertex
 10
702193.3124331106
 20
9316578.994709533
 30
90.0
 70
32
  0
VERTEX
  5
3D
330
17
100
AcDbEntity
  8
POLYLINES
100
AcDbVertex
100
AcDb3dPolylineVertex
 10
702135.961448744
 20
9316637.393949794
 30
90.0
 70
32
  0
VERTEX
  5
3E
330
17
100
AcDbEntity
  8
POLYLINES
100
AcDbVertex
100
AcDb3dPolylineVertex
 10
702116.5919345957
 20
9316687.672428217
 30
90.0
 70
32
  0
VERTEX
  5
3F
330
17
100
AcDbEntity
  8
POLYLINES
100
AcDbVertex
100
AcDb3dPolylineVertex
 10
702115.2298383444
 20
9316752.927526461
 30
90.0
 70
32
  0
VERTEX
  5
40
330
17
100
AcDbEntity
  8
POLYLINES
100
AcDbVertex
100
AcDb3dPolylineVertex
 10
702119.2033702247
 20
9316794.234796274
 30
90.0
 70
32
  0
VERTEX
  5
41
330
17
100
AcDbEntity
  8
POLYLINES
100
AcDbVertex
100
AcDb3dPolylineVertex
 10
702120.8571891314
 20
9316830.751981113
 30
90.0
 70
32
  0
VERTEX
  5
42
330
17
100
AcDbEntity
  8
POLYLINES
100
AcDbVertex
100
AcDb3dPolylineVertex
 10
702124.1973998477
 20
9316840.463749595
 30
90.0
 70
32
  0
VERTEX
  5
43
330
17
100
AcDbEntity
  8
POLYLINES
100
AcDbVertex
100
AcDb3dPolylineVertex
 10
702393.1578880581
 20
9316829.061460555
 30
90.0
 70
32
  0
SEQEND
  5
31
330
30
100
AcDbEntity
  8
POLYLINES
  0
POLYLINE
  5
44
330
17
100
AcDbEntity
  8
POLYLINES
100
AcDb3dPolyline
 66
1
 10
0.0
 20
0.0
 30
0.0
 70
8
  0
VERTEX
  5
46
330
17
100
AcDbEntity
  8
POLYLINES
100
AcDbVertex
100
AcDb3dPolylineVertex
 10
702146.3209406527
 20
9316811.434231406
 30
90.0
 70
32
  0
VERTEX
  5
47
330
17
100
AcDbEntity
  8
POLYLINES
100
AcDbVertex
100
AcDb3dPolylineVertex
 10
702150.7589317793
 20
9316682.236702409
 30
90.0
 70
32
  0
VERTEX
  5
48
330
17
100
AcDbEntity
  8
POLYLINES
100
AcDbVertex
100
AcDb3dPolylineVertex
 10
702660.6169490509
 20
9316665.782600269
 30
90.0
 70
32
  0
VERTEX
  5
49
330
17
100
AcDbEntity
  8
POLYLINES
100
AcDbVertex
100
AcDb3dPolylineVertex
 10
702668.5296993722
 20
9316777.735503001
 30
90.0
 70
32
  0
VERTEX
  5
4A
330
17
100
AcDbEntity
  8
POLYLINES
100
AcDbVertex
100
AcDb3dPolylineVertex
 10
702146.3209406527
 20
9316811.434231406
 30
90.0
 70
32
  0
SEQEND
  5
45
330
44
100
AcDbEntity
  8
POLYLINES
  0
POLYLINE
  5
4B
330
17
100
AcDbEntity
  8
POLYLINES
100
AcDb3dPolyline
 66
1
 10
0.0
 20
0.0
 30
0.0
 70
8
  0
VERTEX
  5
4D
330
17
100
AcDbEntity
  8
POLYLINES
100
AcDbVertex
100
AcDb3dPolylineVertex
 10
702165.5272210927
 20
9316644.981219929
 30
90.0
 70
32
  0
VERTEX
  5
4E
330
17
100
AcDbEntity
  8
POLYLINES
100
AcDbVertex
100
AcDb3dPolylineVertex
 10
702386.5851475019
 20
9316427.234362436
 30
90.0
 70
32
  0
VERTEX
  5
4F
330
17
100
AcDbEntity
  8
POLYLINES
100
AcDbVertex
100
AcDb3dPolylineVertex
 10
702449.5802496488
 20
9316411.744628143
 30
90.0
 70
32
  0
VERTEX
  5
50
330
17
100
AcDbEntity
  8
POLYLINES
100
AcDbVertex
100
AcDb3dPolylineVertex
 10
702560.2205102808
 20
9316420.476487074
 30
90.0
 70
32
  0
VERTEX
  5
51
330
17
100
AcDbEntity
  8
POLYLINES
100
AcDbVertex
100
AcDb3dPolylineVertex
 10
702617.1837650263
 20
9316432.867021464
 30
90.0
 70
32
  0
VERTEX
  5
52
330
17
100
AcDbEntity
  8
POLYLINES
100
AcDbVertex
100
AcDb3dPolylineVertex
 10
702643.4823582442
 20
9316532.715523066
 30
90.0
 70
32
  0
VERTEX
  5
53
330
17
100
AcDbEntity
  8
POLYLINES
100
AcDbVertex
100
AcDb3dPolylineVertex
 10
702654.6007843942
 20
9316637.628137192
 30
90.0
 70
32
  0
VERTEX
  5
54
330
17
100
AcDbEntity
  8
POLYLINES
100
AcDbVertex
100
AcDb3dPolylineVertex
 10
702165.5272210927
 20
9316644.981219929
 30
90.0
 70
32
  0
SEQEND
  5
4C
330
4B
100
AcDbEntity
  8
POLYLINES
  0
POLYLINE
  5
55
330
17
100
AcDbEntity
  8
POLYLINES
100
AcDb3dPolyline
 66
1
 10
0.0
 20
0.0
 30
0.0
 70
8
  0
VERTEX
  5
57
330
17
100
AcDbEntity
  8
POLYLINES
100
AcDbVertex
100
AcDb3dPolylineVertex
 10
702163.846840286
 20
9316795.271470545
 30
80.0
 70
32
  0
VERTEX
  5
58
330
17
100
AcDbEntity
  8
POLYLINES
100
AcDbVertex
100
AcDb3dPolylineVertex
 10
702167.3880821451
 20
9316700.399455382
 30
80.0
 70
32
  0
VERTEX
  5
59
330
17
100
AcDbEntity
  8
POLYLINES
100
AcDbVertex
100
AcDb3dPolylineVertex
 10
702640.9527534802
 20
9316681.283127928
 30
80.0
 70
32
  0
VERTEX
  5
5A
330
17
100
AcDbEntity
  8
POLYLINES
100
AcDbVertex
100
AcDb3dPolylineVertex
 10
702649.937905982
 20
9316760.355903428
 30
80.0
 70
32
  0
VERTEX
  5
5B
330
17
100
AcDbEntity
  8
POLYLINES
100
AcDbVertex
100
AcDb3dPolylineVertex
 10
702163.846840286
 20
9316795.271470545
 30
80.0
 70
32
  0
SEQEND
  5
56
330
55
100
AcDbEntity
  8
POLYLINES
  0
POLYLINE
  5
5C
330
17
100
AcDbEntity
  8
POLYLINES
100
AcDb3dPolyline
 66
1
 10
0.0
 20
0.0
 30
0.0
 70
8
  0
VERTEX
  5
5E
330
17
100
AcDbEntity
  8
POLYLINES
100
AcDbVertex
100
AcDb3dPolylineVertex
 10
702207.0246684615
 20
9316627.51044957
 30
80.0
 70
32
  0
VERTEX
  5
5F
330
17
100
AcDbEntity
  8
POLYLINES
100
AcDbVertex
100
AcDb3dPolylineVertex
 10
702398.5921419259
 20
9316436.463762194
 30
80.0
 70
32
  0
VERTEX
  5
60
330
17
100
AcDbEntity
  8
POLYLINES
100
AcDbVertex
100
AcDb3dPolylineVertex
 10
702471.3565175594
 20
9316424.01379092
 30
80.0
 70
32
  0
VERTEX
  5
61
330
17
100
AcDbEntity
  8
POLYLINES
100
AcDbVertex
100
AcDb3dPolylineVertex
 10
702605.2167451229
 20
9316437.117152965
 30
80.0
 70
32
  0
VERTEX
  5
62
330
17
100
AcDbEntity
  8
POLYLINES
100
AcDbVertex
100
AcDb3dPolylineVertex
 10
702636.2036794097
 20
9316612.072651219
 30
80.0
 70
32
  0
VERTEX
  5
63
330
17
100
AcDbEntity
  8
POLYLINES
100
AcDbVertex
100
AcDb3dPolylineVertex
 10
702207.0246684615
 20
9316627.51044957
 30
80.0
 70
32
  0
SEQEND
  5
5D
330
5C
100
AcDbEntity
  8
POLYLINES
  0
POLYLINE
  5
64
330
17
100
AcDbEntity
  8
POLYLINES
100
AcDb3dPolyline
 66
1
 10
0.0
 20
0.0
 30
0.0
 70
8
  0
VERTEX
  5
66
330
17
100
AcDbEntity
  8
POLYLINES
100
AcDbVertex
100
AcDb3dPolylineVertex
 10
702319.0064203584
 20
9316537.645290395
 30
80.0
 70
32
  0
VERTEX
  5
67
330
17
100
AcDbEntity
  8
POLYLINES
100
AcDbVertex
100
AcDb3dPolylineVertex
 10
702408.1712335568
 20
9316453.240242261
 30
80.0
 70
32
  0
VERTEX
  5
68
330
17
100
AcDbEntity
  8
POLYLINES
100
AcDbVertex
100
AcDb3dPolylineVertex
 10
702470.0421315345
 20
9316434.14174799
 30
80.0
 70
32
  0
VERTEX
  5
69
330
17
100
AcDbEntity
  8
POLYLINES
100
AcDbVertex
100
AcDb3dPolylineVertex
 10
702592.1020575895
 20
9316445.18281956
 30
80.0
 70
32
  0
VERTEX
  5
6A
330
17
100
AcDbEntity
  8
POLYLINES
100
AcDbVertex
100
AcDb3dPolylineVertex
 10
702611.518650782
 20
9316535.52312021
 30
80.0
 70
32
  0
VERTEX
  5
6B
330
17
100
AcDbEntity
  8
POLYLINES
100
AcDbVertex
100
AcDb3dPolylineVertex
 10
702319.0064203584
 20
9316537.645290395
 30
80.0
 70
32
  0
SEQEND
  5
65
330
64
100
AcDbEntity
  8
POLYLINES
  0
POLYLINE
  5
6C
330
17
100
AcDbEntity
  8
POLYLINES
100
AcDb3dPolyline
 66
1
 10
0.0
 20
0.0
 30
0.0
 70
8
  0
VERTEX
  5
6E
330
17
100
AcDbEntity
  8
POLYLINES
100
AcDbVertex
100
AcDb3dPolylineVertex
 10
702353.4557213971
 20
9316521.203087058
 30
70.0
 70
32
  0
VERTEX
  5
6F
330
17
100
AcDbEntity
  8
POLYLINES
100
AcDbVertex
100
AcDb3dPolylineVertex
 10
702421.6958131546
 20
9316462.166755578
 30
70.0
 70
32
  0
VERTEX
  5
70
330
17
100
AcDbEntity
  8
POLYLINES
100
AcDbVertex
100
AcDb3dPolylineVertex
 10
702468.7253036138
 20
9316443.071181469
 30
70.0
 70
32
  0
VERTEX
  5
71
330
17
100
AcDbEntity
  8
POLYLINES
100
AcDbVertex
100
AcDb3dPolylineVertex
 10
702578.9911263062
 20
9316454.45086906
 30
70.0
 70
32
  0
VERTEX
  5
72
330
17
100
AcDbEntity
  8
POLYLINES
100
AcDbVertex
100
AcDb3dPolylineVertex
 10
702592.6616762136
 20
9316519.628060859
 30
70.0
 70
32
  0
VERTEX
  5
73
330
17
100
AcDbEntity
  8
POLYLINES
100
AcDbVertex
100
AcDb3dPolylineVertex
 10
702353.4557213971
 20
9316521.203087058
 30
70.0
 70
32
  0
SEQEND
  5
6D
330
6C
100
AcDbEntity
  8
POLYLINES
  0
POLYLINE
  5
74
330
17
100
AcDbEntity
  8
POLYLINES
100
AcDb3dPolyline
 66
1
 10
0.0
 20
0.0
 30
0.0
 70
8
  0
VERTEX
  5
76
330
17
100
AcDbEntity
  8
POLYLINES
100
AcDbVertex
100
AcDb3dPolylineVertex
 10
702102.5576427031
 20
9316753.394738073
 30
100.0
 70
32
  0
VERTEX
  5
77
330
17
100
AcDbEntity
  8
POLYLINES
100
AcDbVertex
100
AcDb3dPolylineVertex
 10
702107.7938208871
 20
9316855.416799324
 30
100.0
 70
32
  0
VERTEX
  5
78
330
17
100
AcDbEntity
  8
POLYLINES
100
AcDbVertex
100
AcDb3dPolylineVertex
 10
702716.9193424688
 20
9316823.529142259
 30
100.0
 70
32
  0
VERTEX
  5
79
330
17
100
AcDbEntity
  8
POLYLINES
100
AcDbVertex
100
AcDb3dPolylineVertex
 10
702712.7164958456
 20
9316538.433663256
 30
100.0
 70
32
  0
VERTEX
  5
7A
330
17
100
AcDbEntity
  8
POLYLINES
100
AcDbVertex
100
AcDb3dPolylineVertex
 10
702653.062785724
 20
9316389.703655206
 30
100.0
 70
32
  0
VERTEX
  5
7B
330
17
100
AcDbEntity
  8
POLYLINES
100
AcDbVertex
100
AcDb3dPolylineVertex
 10
702419.7170498776
 20
9316343.524375519
 30
100.0
 70
32
  0
VERTEX
  5
7C
330
17
100
AcDbEntity
  8
POLYLINES
100
AcDbVertex
100
AcDb3dPolylineVertex
 10
702142.1393453935
 20
9316498.855529632
 30
100.0
 70
32
  0
VERTEX
  5
7D
330
17
100
AcDbEntity
  8
POLYLINES
100
AcDbVertex
100
AcDb3dPolylineVertex
 10
702050.1562843295
 20
9316563.366083082
 30
100.0
 70
32
  0
VERTEX
  5
7E
330
17
100
AcDbEntity
  8
POLYLINES
100
AcDbVertex
100
AcDb3dPolylineVertex
 10
702045.3703705383
 20
9316668.001788145
 30
100.0
 70
32
  0
VERTEX
  5
7F
330
17
100
AcDbEntity
  8
POLYLINES
100
AcDbVertex
100
AcDb3dPolylineVertex
 10
702102.5576427031
 20
9316753.394738073
 30
100.0
 70
32
  0
SEQEND
  5
75
330
74
100
AcDbEntity
  8
POLYLINES
  0
POLYLINE
  5
80
330
17
100
AcDbEntity
  8
POLYLINES
100
AcDb3dPolyline
 66
1
 10
0.0
 20
0.0
 30
0.0
 70
8
  0
VERTEX
  5
82
330
17
100
AcDbEntity
  8
POLYLINES
100
AcDbVertex
100
AcDb3dPolylineVertex
 10
702007.6402886915
 20
9316686.010548651
 30
100.0
 70
32
  0
VERTEX
  5
83
330
17
100
AcDbEntity
  8
POLYLINES
100
AcDbVertex
100
AcDb3dPolylineVertex
 10
702027.3686839433
 20
9317003.35020984
 30
100.0
 70
32
  0
VERTEX
  5
84
330
17
100
AcDbEntity
  8
POLYLINES
100
AcDbVertex
100
AcDb3dPolylineVertex
 10
702724.9265225269
 20
9316943.041995775
 30
100.0
 70
32
  0
VERTEX
  5
85
330
17
100
AcDbEntity
  8
POLYLINES
100
AcDbVertex
100
AcDb3dPolylineVertex
 10
702821.4200015096
 20
9316714.489697637
 30
100.0
 70
32
  0
VERTEX
  5
86
330
17
100
AcDbEntity
  8
POLYLINES
100
AcDbVertex
100
AcDb3dPolylineVertex
 10
702736.7996942229
 20
9316408.015365856
 30
100.0
 70
32
  0
VERTEX
  5
87
330
17
100
AcDbEntity
  8
POLYLINES
100
AcDbVertex
100
AcDb3dPolylineVertex
 10
702642.2187965412
 20
9316319.340810213
 30
100.0
 70
32
  0
VERTEX
  5
88
330
17
100
AcDbEntity
  8
POLYLINES
100
AcDbVertex
100
AcDb3dPolylineVertex
 10
702434.5582946038
 20
9316264.056999706
 30
100.0
 70
32
  0
VERTEX
  5
89
330
17
100
AcDbEntity
  8
POLYLINES
100
AcDbVertex
100
AcDb3dPolylineVertex
 10
702132.7504881595
 20
9316402.398238527
 30
100.0
 70
32
  0
VERTEX
  5
8A
330
17
100
AcDbEntity
  8
POLYLINES
100
AcDbVertex
100
AcDb3dPolylineVertex
 10
702016.0817017893
 20
9316495.296927154
 30
100.0
 70
32
  0
VERTEX
  5
8B
330
17
100
AcDbEntity
  8
POLYLINES
100
AcDbVertex
100
AcDb3dPolylineVertex
 10
702007.6402886915
 20
9316686.010548651
 30
100.0
 70
32
  0
SEQEND
  5
81
330
80
100
AcDbEntity
  8
POLYLINES
  0
POLYLINE
  5
8C
330
17
100
AcDbEntity
  8
POLYLINES
100
AcDb3dPolyline
 66
1
 10
0.0
 20
0.0
 30
0.0
 70
8
  0
VERTEX
  5
8E
330
17
100
AcDbEntity
  8
POLYLINES
100
AcDbVertex
100
AcDb3dPolylineVertex
 10
702025.5534058746
 20
9317028.929491244
 30
110.0
 70
32
  0
VERTEX
  5
8F
330
17
100
AcDbEntity
  8
POLYLINES
100
AcDbVertex
100
AcDb3dPolylineVertex
 10
702739.4683573066
 20
9316970.521875804
 30
110.0
 70
32
  0
VERTEX
  5
90
330
17
100
AcDbEntity
  8
POLYLINES
100
AcDbVertex
100
AcDb3dPolylineVertex
 10
702862.7561594909
 20
9316721.370171579
 30
110.0
 70
32
  0
VERTEX
  5
91
330
17
100
AcDbEntity
  8
POLYLINES
100
AcDbVertex
100
AcDb3dPolylineVertex
 10
702760.3852930167
 20
9316398.571285514
 30
110.0
 70
32
  0
VERTEX
  5
92
330
17
100
AcDbEntity
  8
POLYLINES
100
AcDbVertex
100
AcDb3dPolylineVertex
 10
702628.705673317
 20
9316269.792967044
 30
110.0
 70
32
  0
VERTEX
  5
93
330
17
100
AcDbEntity
  8
POLYLINES
100
AcDbVertex
100
AcDb3dPolylineVertex
 10
702439.0169501498
 20
9316242.231659139
 30
110.0
 70
32
  0
VERTEX
  5
94
330
17
100
AcDbEntity
  8
POLYLINES
100
AcDbVertex
100
AcDb3dPolylineVertex
 10
702194.922637035
 20
9316338.366441522
 30
110.0
 70
32
  0
VERTEX
  5
95
330
17
100
AcDbEntity
  8
POLYLINES
100
AcDbVertex
100
AcDb3dPolylineVertex
 10
702010.0920439883
 20
9316479.337844742
 30
110.0
 70
32
  0
VERTEX
  5
96
330
17
100
AcDbEntity
  8
POLYLINES
100
AcDbVertex
100
AcDb3dPolylineVertex
 10
701986.2717794154
 20
9316510.03125034
 30
110.0
 70
32
  0
VERTEX
  5
97
330
17
100
AcDbEntity
  8
POLYLINES
100
AcDbVertex
100
AcDb3dPolylineVertex
 10
701991.1542863485
 20
9317010.718682818
 30
110.0
 70
32
  0
VERTEX
  5
98
330
17
100
AcDbEntity
  8
POLYLINES
100
AcDbVertex
100
AcDb3dPolylineVertex
 10
702025.5534058746
 20
9317028.929491244
 30
110.0
 70
32
  0
SEQEND
  5
8D
330
8C
100
AcDbEntity
  8
POLYLINES
  0
POLYLINE
  5
99
330
17
100
AcDbEntity
  8
POLYLINES
100
AcDb3dPolyline
 66
1
 10
0.0
 20
0.0
 30
0.0
 70
8
  0
VERTEX
  5
9B
330
17
100
AcDbEntity
  8
POLYLINES
100
AcDbVertex
100
AcDb3dPolylineVertex
 10
701976.8267934285
 20
9317040.029605364
 30
110.0
 70
32
  0
VERTEX
  5
9C
330
17
100
AcDbEntity
  8
POLYLINES
100
AcDbVertex
100
AcDb3dPolylineVertex
 10
702019.55570712
 20
9317057.837983608
 30
110.0
 70
32
  0
VERTEX
  5
9D
330
17
100
AcDbEntity
  8
POLYLINES
100
AcDbVertex
100
AcDb3dPolylineVertex
 10
702753.7070099891
 20
9316989.343913876
 30
110.0
 70
32
  0
VERTEX
  5
9E
330
17
100
AcDbEntity
  8
POLYLINES
100
AcDbVertex
100
AcDb3dPolylineVertex
 10
702889.0281236636
 20
9316731.223861758
 30
110.0
 70
32
  0
VERTEX
  5
9F
330
17
100
AcDbEntity
  8
POLYLINES
100
AcDbVertex
100
AcDb3dPolylineVertex
 10
702785.5291449443
 20
9316375.8224804
 30
110.0
 70
32
  0
VERTEX
  5
A0
330
17
100
AcDbEntity
  8
POLYLINES
100
AcDbVertex
100
AcDb3dPolylineVertex
 10
702631.4824648505
 20
9316247.701919638
 30
110.0
 70
32
  0
VERTEX
  5
A1
330
17
100
AcDbEntity
  8
POLYLINES
100
AcDbVertex
100
AcDb3dPolylineVertex
 10
702442.4876211325
 20
9316228.40117682
 30
110.0
 70
32
  0
VERTEX
  5
A2
330
17
100
AcDbEntity
  8
POLYLINES
100
AcDbVertex
100
AcDb3dPolylineVertex
 10
702196.5708310246
 20
9316321.374736745
 30
110.0
 70
32
  0
VERTEX
  5
A3
330
17
100
AcDbEntity
  8
POLYLINES
100
AcDbVertex
100
AcDb3dPolylineVertex
 10
701967.4454737362
 20
9316509.250912352
 30
110.0
 70
32
  0
VERTEX
  5
A4
330
17
100
AcDbEntity
  8
POLYLINES
100
AcDbVertex
100
AcDb3dPolylineVertex
 10
701976.8267934285
 20
9317040.029605364
 30
110.0
 70
32
  0
SEQEND
  5
9A
330
99
100
AcDbEntity
  8
POLYLINES
  0
ENDSEC
  0
SECTION
  2
OBJECTS
  0
DICTIONARY
  5
A
330
0
100
AcDbDictionary
281
1
  3
ACAD_COLOR
350
B
  3
ACAD_GROUP
350
C
  3
ACAD_LAYOUT
350
D
  3
ACAD_MATERIAL
350
E
  3
ACAD_MLEADERSTYLE
350
F
  3
ACAD_MLINESTYLE
350
10
  3
ACAD_PLOTSETTINGS
350
11
  3
ACAD_PLOTSTYLENAME
350
12
  3
ACAD_SCALELIST
350
14
  3
ACAD_TABLESTYLE
350
15
  3
ACAD_VISUALSTYLE
350
16
  3
EZDXF_META
350
2D
  0
DICTIONARY
  5
B
330
A
100
AcDbDictionary
281
1
  0
DICTIONARY
  5
C
330
A
100
AcDbDictionary
281
1
  0
DICTIONARY
  5
D
330
A
100
AcDbDictionary
281
1
  3
Model
350
1A
  3
Layout1
350
1E
  0
DICTIONARY
  5
E
330
A
100
AcDbDictionary
281
1
  3
ByBlock
350
1F
  3
ByLayer
350
20
  3
Global
350
21
  0
DICTIONARY
  5
F
330
A
100
AcDbDictionary
281
1
  3
Standard
350
2C
  0
DICTIONARY
  5
10
330
A
100
AcDbDictionary
281
1
  3
Standard
350
22
  0
DICTIONARY
  5
11
330
A
100
AcDbDictionary
281
1
  0
ACDBDICTIONARYWDFLT
  5
12
330
A
100
AcDbDictionary
281
1
  3
Normal
350
13
100
AcDbDictionaryWithDefault
340
13
  0
ACDBPLACEHOLDER
  5
13
330
12
  0
DICTIONARY
  5
14
330
A
100
AcDbDictionary
281
1
  0
DICTIONARY
  5
15
330
A
100
AcDbDictionary
281
1
  0
DICTIONARY
  5
16
330
A
100
AcDbDictionary
281
1
  0
LAYOUT
  5
1A
330
D
100
AcDbPlotSettings
  1

  4
A3
  6

 40
7.5
 41
20.0
 42
7.5
 43
20.0
 44
420.0
 45
297.0
 46
0.0
 47
0.0
 48
0.0
 49
0.0
140
0.0
141
0.0
142
1.0
143
1.0
 70
1024
 72
1
 73
0
 74
5
  7

 75
16
 76
0
 77
2
 78
300
147
1.0
148
0.0
149
0.0
100
AcDbLayout
  1
Model
 70
1
 71
0
 10
0.0
 20
0.0
 11
420.0
 21
297.0
 12
0.0
 22
0.0
 32
0.0
 14
1e+20
 24
1e+20
 34
1e+20
 15
-1e+20
 25
-1e+20
 35
-1e+20
146
0.0
 13
0.0
 23
0.0
 33
0.0
 16
1.0
 26
0.0
 36
0.0
 17
0.0
 27
1.0
 37
0.0
 76
1
330
17
  0
LAYOUT
  5
1E
330
D
100
AcDbPlotSettings
  1

  4
A3
  6

 40
7.5
 41
20.0
 42
7.5
 43
20.0
 44
420.0
 45
297.0
 46
0.0
 47
0.0
 48
0.0
 49
0.0
140
0.0
141
0.0
142
1.0
143
1.0
 70
0
 72
1
 73
0
 74
5
  7

 75
16
 76
0
 77
2
 78
300
147
1.0
148
0.0
149
0.0
100
AcDbLayout
  1
Layout1
 70
1
 71
1
 10
0.0
 20
0.0
 11
420.0
 21
297.0
 12
0.0
 22
0.0
 32
0.0
 14
1e+20
 24
1e+20
 34
1e+20
 15
-1e+20
 25
-1e+20
 35
-1e+20
146
0.0
 13
0.0
 23
0.0
 33
0.0
 16
1.0
 26
0.0
 36
0.0
 17
0.0
 27
1.0
 37
0.0
 76
1
330
1B
  0
MATERIAL
  5
1F
102
{ACAD_REACTORS
330
E
102
}
330
E
100
AcDbMaterial
  1
ByBlock
  2

 70
0
 40
1.0
 71
1
 41
1.0
 91
-1023410177
 42
1.0
 72
1
  3

 73
1
 74
1
 75
1
 44
0.5
 73
0
 45
1.0
 46
1.0
 77
1
  4

 78
1
 79
1
170
1
 48
1.0
171
1
  6

172
1
173
1
174
1
140
1.0
141
1.0
175
1
  7

176
1
177
1
178
1
143
1.0
179
1
  8

270
1
271
1
272
1
145
1.0
146
1.0
273
1
  9

274
1
275
1
276
1
 42
1.0
 72
1
  3

 73
1
 74
1
 75
1
 94
63
  0
MATERIAL
  5
20
102
{ACAD_REACTORS
330
E
102
}
330
E
100
AcDbMaterial
  1
ByLayer
  2

 70
0
 40
1.0
 71
1
 41
1.0
 91
-1023410177
 42
1.0
 72
1
  3

 73
1
 74
1
 75
1
 44
0.5
 73
0
 45
1.0
 46
1.0
 77
1
  4

 78
1
 79
1
170
1
 48
1.0
171
1
  6

172
1
173
1
174
1
140
1.0
141
1.0
175
1
  7

176
1
177
1
178
1
143
1.0
179
1
  8

270
1
271
1
272
1
145
1.0
146
1.0
273
1
  9

274
1
275
1
276
1
 42
1.0
 72
1
  3

 73
1
 74
1
 75
1
 94
63
  0
MATERIAL
  5
21
102
{ACAD_REACTORS
330
E
102
}
330
E
100
AcDbMaterial
  1
Global
  2

 70
0
 40
1.0
 71
1
 41
1.0
 91
-1023410177
 42
1.0
 72
1
  3

 73
1
 74
1
 75
1
 44
0.5
 73
0
 45
1.0
 46
1.0
 77
1
  4

 78
1
 79
1
170
1
 48
1.0
171
1
  6

172
1
173
1
174
1
140
1.0
141
1.0
175
1
  7

176
1
177
1
178
1
143
1.0
179
1
  8

270
1
271
1
272
1
145
1.0
146
1.0
273
1
  9

274
1
275
1
276
1
 42
1.0
 72
1
  3

 73
1
 74
1
 75
1
 94
63
  0
MLINESTYLE
  5
22
102
{ACAD_REACTORS
330
10
102
}
330
10
100
AcDbMlineStyle
  2
Standard
 70
0
  3

 62
256
 51
90.0
 52
90.0
 71
2
 49
0.5
 62
256
  6
BYLAYER
 49
-0.5
 62
256
  6
BYLAYER
  0
MLEADERSTYLE
  5
2C
102
{ACAD_REACTORS
330
F
102
}
330
F
100
AcDbMLeaderStyle
179
2
170
2
171
1
172
0
 90
2
 40
0.0
 41
0.0
173
1
 91
-1056964608
 92
-2
290
1
 42
2.0
291
1
 43
8.0
  3
Standard
 44
4.0
300

342
29
174
1
175
1
176
0
178
1
 93
-1056964608
 45
4.0
292
0
297
0
 46
4.0
 94
-1056964608
 47
1.0
 49
1.0
140
1.0
294
1
141
0.0
177
0
142
1.0
295
0
296
0
143
3.75
271
0
272
9
273
9
  0
DICTIONARY
  5
2D
330
A
100
AcDbDictionary
280
1
281
1
  3
CREATED_BY_EZDXF
350
2E
  3
WRITTEN_BY_EZDXF
350
A7
  0
DICTIONARYVAR
  5
2E
330
2D
100
DictionaryVariables
280
0
  1
1.4.2 @ 2025-06-13T04:10:05.784231+00:00
  0
DICTIONARYVAR
  5
A7
330
2D
100
DictionaryVariables
280
0
  1
1.4.2 @ 2025-06-13T04:10:05.796188+00:00
  0
ENDSEC
  0
EOF
